# xmcd
#
# Track frame offsets:
#	182
#	16317
#	29700
#	44467
#	56100
#	69530
#	85302
#	100435
#	115337
#	131180
#	146480
#	163065
#	179242
#	193860
#
# Disc length: 2757 seconds
# Revision: 0
# Processed by: cddbd v1.5.2PL0 Copyright (c) Steve Scherf et al.
# Submitted via: dBpowerAMP V12.0
#
DISCID=dd0ac30e
DTITLE=Various Artist - Coplas de España Vol 2 CD 1
DYEAR=1991
DGENRE=Copla
TTITLE0=Imperio Argentina - Falsa monea
TTITLE1=Pepe Blanco - Tani
TTITLE2=Estrellita Castro - Suspiros de España
TTITLE3=Manolo Escobar - Madrecita Maria del Carmen
TTITLE4=El Principe gitano - Cariño de Legionario
TTITLE5=Juanita Reina - Carmen de España
TTITLE6=Rafael Farina - Las campanas de Linares
TTITLE7=Miguel de Molina - Trinia
TTITLE8=Lola Flores - A tu vera
TTITLE9=Angelillo - Chiclanera
TTITLE10=Mari Fe de Triana - La loba
TTITLE11=Angel Romero - Mi escapulario
TTITLE12=Rosita Ferrer - Maria Paz
TTITLE13=Carmen Sevilla - Castillito de arena
EXTD=
EXTT0=
EXTT1=
EXTT2=
EXTT3=
EXTT4=
EXTT5=
EXTT6=
EXTT7=
EXTT8=
EXTT9=
EXTT10=
EXTT11=
EXTT12=
EXTT13=
PLAYORDER=
